<?xml version="1.0" standalone="no"?>
<!DOCTYPE svg PUBLIC "-//W3C//DTD SVG 20010904//EN"
 "http://www.w3.org/TR/2001/REC-SVG-20010904/DTD/svg10.dtd">
<svg version="1.0" xmlns="http://www.w3.org/2000/svg"
 width="300.000000pt" height="61.000000pt" viewBox="0 0 300.000000 61.000000"
 preserveAspectRatio="xMidYMid meet">
<defs>
    <linearGradient id="saikaGradient" x1="0%" y1="0%" x2="100%" y2="100%">
        <stop offset="0%" style="stop-color:#667eea;stop-opacity:1" />
        <stop offset="100%" style="stop-color:#764ba2;stop-opacity:1" />
    </linearGradient>
    <linearGradient id="saikaGradientBright" x1="0%" y1="0%" x2="100%" y2="100%">
        <stop offset="0%" style="stop-color:#849aff;stop-opacity:1" />
        <stop offset="100%" style="stop-color:#9e6ed0;stop-opacity:1" />
    </linearGradient>
    <linearGradient id="saikaGradientDark" x1="0%" y1="0%" x2="100%" y2="100%">
        <stop offset="0%" style="stop-color:#3f4f9e;stop-opacity:1" />
        <stop offset="100%" style="stop-color:#5a2b8c;stop-opacity:1" />
    </linearGradient>
</defs>
<metadata>
Created by potrace 1.10, written by Peter Selinger 2001-2011
</metadata>
<g transform="translate(0.000000,61.000000) scale(0.050000,-0.050000)"
fill="none" stroke="#ffffff" stroke-width="3" stroke-linecap="round" stroke-linejoin="round">
<path d="M1420 650 l0 -410 80 0 80 0 0 410 0 410 -80 0 -80 0 0 -410z"/>
<path d="M1664 1036 c-75 -75 18 -185 107 -127 80 52 53 151 -41 151 -23 0
-53 -11 -66 -24z"/>
<path d="M4564 1036 c-36 -36 -29 -112 13 -134 86 -47 183 55 123 128 -30 36
-103 39 -136 6z"/>
<path d="M4780 650 l0 -410 80 0 c77 0 80 3 81 65 0 36 12 92 26 125 l26 59
70 -119 c68 -117 72 -120 163 -126 116 -8 117 -19 -18 190 -122 190 -120 226
16 226 53 0 56 5 56 90 0 101 -16 109 -129 62 -77 -32 -164 -150 -183 -247
-27 -133 -38 -57 -31 215 l6 280 -81 0 -82 0 0 -410z"/>
<path d="M364 1017 c-256 -59 -375 -368 -235 -607 140 -239 614 -258 619 -25
2 110 6 107 -71 53 -194 -138 -437 -10 -412 217 23 199 274 287 423 147 64
-60 72 -54 72 59 0 139 -174 208 -396 156z"/>
<path d="M3510 1018 c-297 -72 -263 -383 50 -448 96 -19 160 -63 160 -110 0
-96 -202 -103 -340 -12 l-80 53 0 -109 c0 -124 27 -143 242 -165 380 -40 519
366 159 465 -168 46 -201 63 -201 106 0 83 169 97 287 24 l73 -45 0 109 c0 97
-5 111 -45 120 -105 25 -230 30 -305 12z"/>
<path d="M995 811 c-325 -116 -229 -588 121 -591 126 0 204 49 204 129 0 82 6
80 -91 39 -87 -36 -205 -23 -223 25 -18 46 31 66 159 67 188 0 257 124 144
258 -78 92 -189 118 -314 73z m193 -152 c34 -32 -6 -79 -68 -79 -39 0 -80 -18
-111 -49 l-49 -49 0 50 c0 131 140 209 228 127z"/>
<path d="M2150 818 c-22 -12 -61 -46 -87 -75 l-46 -53 13 65 13 65 -86 0 -87
0 0 -290 0 -290 85 0 85 0 0 186 c0 215 20 261 111 251 89 -11 112 -75 97
-272 l-13 -165 96 0 95 0 -13 135 c-7 74 -13 182 -13 239 0 162 -132 270 -250
204z"/>
<path d="M2666 815 c-280 -90 -235 -541 58 -585 161 -24 256 17 256 111 0 91
3 89 -73 49 -95 -49 -227 -27 -227 39 0 37 45 51 172 51 181 0 248 126 137
258 -76 89 -196 118 -323 77z m199 -163 c26 -40 3 -62 -77 -73 -96 -13 -128
-31 -128 -75 -1 -27 -4 -28 -18 -7 -19 31 -7 99 25 140 48 61 162 70 198 15z"/>
<path d="M4110 810 c-165 -59 -181 -191 -30 -256 59 -26 63 -31 23 -32 -58 -2
-163 -105 -163 -161 0 -169 255 -183 342 -19 l36 68 1 -85 1 -85 80 0 80 0 0
227 c0 261 -24 316 -156 352 -94 26 -117 25 -214 -9z m171 -131 c88 -47 -1
-144 -94 -101 -55 25 -61 72 -12 100 45 26 59 27 106 1z m10 -217 c-38 -73
-98 -109 -153 -91 -66 20 -36 75 72 131 111 57 127 49 81 -40z"/>
<path d="M5510 810 c-159 -57 -183 -189 -46 -247 l85 -36 -63 -13 c-135 -27
-186 -156 -97 -245 90 -89 225 -53 290 79 l41 82 0 -95 0 -95 80 0 80 0 0 227
c0 261 -24 316 -156 352 -94 26 -117 25 -214 -9z m159 -130 c62 -23 66 -70 8
-101 -87 -47 -186 50 -102 99 43 26 33 25 94 2z m12 -228 c-47 -76 -88 -99
-145 -81 -63 20 -32 75 74 133 113 61 132 47 71 -52z"/>
<path d="M1640 530 l0 -290 80 0 80 0 0 290 0 290 -80 0 -80 0 0 -290z"/>
<path d="M4550 530 l0 -290 80 0 80 0 -6 290 -6 290 -74 0 -74 0 0 -290z"/>
</g>
</svg>
