<?xml version="1.0" standalone="no"?>
<!DOCTYPE svg PUBLIC "-//W3C//DTD SVG 20010904//EN"
 "http://www.w3.org/TR/2001/REC-SVG-20010904/DTD/svg10.dtd">
<svg version="1.0" xmlns="http://www.w3.org/2000/svg"
 width="300.000000pt" height="58.000000pt" viewBox="0 0 300.000000 58.000000"
 preserveAspectRatio="xMidYMid meet">
<metadata>
Created by potrace 1.10, written by Peter Selinger 2001-2011
</metadata>
<g transform="translate(0.000000,58.000000) scale(0.100000,-0.100000)"
fill="none" stroke="#ffffff" stroke-width="6" stroke-linecap="round" stroke-linejoin="round">
<path d="M555 507 c-2 -6 -8 -26 -13 -44 -10 -31 -2 -43 28 -43 8 0 29 51 31
75 1 15 -41 27 -46 12z"/>
<path d="M844 465 c-8 -21 2 -45 19 -45 8 0 20 7 27 15 10 12 10 18 0 30 -7 8
-19 15 -27 15 -7 0 -16 -7 -19 -15z"/>
<path d="M2214 466 c-9 -24 4 -48 23 -44 24 4 24 52 0 56 -9 2 -20 -4 -23 -12z"/>
<path id="saika-svg-path-c" d="M160 438 c-119 -61 -120 -232 -1 -295 55 -29 95 -29 151 0 42 21 70
55 85 105 6 19 3 22 -24 22 -26 0 -33 -6 -46 -35 -30 -74 -134 -80 -176 -11
-59 96 27 213 126 172 24 -11 40 -26 48 -46 9 -25 17 -30 44 -30 l33 0 -15 37
c-21 50 -34 63 -80 84 -53 25 -92 24 -145 -3z"/>
<path id="saika-svg-path-l" d="M730 293 l0 -163 30 0 30 0 0 163 0 162 -30 0 -30 0 0 -162z"/>
<path id="saika-svg-path-s" d="M1694 450 c-46 -18 -67 -77 -43 -121 5 -11 40 -35 77 -52 55 -27 68
-37 70 -59 6 -52 -78 -62 -100 -12 -14 31 -68 35 -68 5 0 -29 37 -68 76 -81
78 -26 154 17 154 88 0 47 -22 70 -102 106 -59 25 -73 47 -46 74 27 27 78 7
78 -30 0 -14 8 -18 35 -18 37 0 38 5 12 58 -21 44 -90 64 -143 42z"/>
<path id="saika-svg-path-k" d="M2310 294 l0 -164 30 0 c29 0 29 1 32 59 l3 59 50 -59 c44 -51 54
-58 88 -58 l39 -1 -63 70 -63 71 57 57 c31 32 57 61 57 64 0 4 -17 4 -37 1
-29 -4 -49 -17 -85 -56 l-47 -52 -1 85 0 85 -30 1 -30 1 0 -163z"/>
<path id="saika-svg-path-e" d="M500 382 c-73 -36 -100 -123 -60 -189 55 -91 181 -94 233 -4 l19 31
-32 0 c-19 0 -38 -8 -48 -20 -29 -33 -65 -35 -100 -5 -18 15 -32 31 -32 36 0
4 48 10 108 11 l107 3 -4 30 c-6 51 -30 86 -74 106 -52 23 -73 24 -117 1z
m113 -60 c30 -26 19 -32 -60 -32 l-76 0 19 21 c36 41 79 45 117 11z"/>
<path id="saika-svg-path-n" d="M1002 385 c-46 -20 -62 -65 -62 -170 l0 -85 30 0 30 0 0 90 c0 77 3
93 20 110 24 24 48 25 78 4 20 -14 22 -23 22 -110 l0 -94 30 0 30 0 0 90 c0
107 -15 145 -65 166 -43 17 -71 17 -113 -1z"/>
<path id="saika-svg-path-e2" d="M1300 389 c-37 -15 -68 -48 -81 -86 -32 -98 56 -198 157 -179 33 7
104 65 104 86 0 20 -62 10 -79 -12 -27 -32 -78 -29 -109 8 l-25 29 111 3 c127
3 127 3 92 80 -29 63 -107 96 -170 71z m103 -67 c30 -26 19 -32 -60 -32 l-76
0 19 21 c36 41 79 45 117 11z"/>
<path id="saika-svg-path-a" d="M1970 383 c-69 -36 -99 -118 -66 -181 36 -69 106 -98 164 -68 18 9
32 12 32 6 0 -5 14 -10 30 -10 l30 0 0 83 c0 64 -4 89 -20 114 -38 64 -110 87
-170 56z m120 -73 c11 -21 13 -70 4 -95 -6 -15 -54 -45 -73 -45 -5 0 -23 12
-40 26 -69 58 -12 171 72 142 15 -6 32 -18 37 -28z"/>
<path id="saika-svg-path-a2" d="M2645 381 c-50 -26 -75 -66 -75 -121 0 -54 30 -103 74 -124 42 -20
57 -20 101 -2 19 8 35 11 35 5 0 -5 14 -9 30 -9 l30 0 0 78 c0 54 -5 87 -18
111 -36 72 -108 97 -177 62z m113 -64 c15 -14 22 -32 22 -56 -1 -63 -50 -102
-101 -80 -36 14 -49 37 -49 81 1 39 17 64 51 76 29 11 46 6 77 -21z"/>
<path id="saika-svg-path-i" d="M840 260 l0 -130 30 0 30 0 0 130 0 130 -30 0 -30 0 0 -130z"/>
<path id="saika-svg-path-i2" d="M2205 260 l0 -130 30 0 30 0 0 130 0 130 -30 0 -30 0 0 -130z"/>
</g>
</svg>
